<svg xmlns="http://www.w3.org/2000/svg" xmlns:xlink="http://www.w3.org/1999/xlink" width="200" height="200" viewBox="0 0 2000 2000">
  <defs>
    <clipPath id="clip-scrollformore">
      <rect width="2000" height="2000"/>
    </clipPath>
  </defs>
  <g id="scrollformore" clip-path="url(#clip-scrollformore)">
    <g id="Group_6" data-name="Group 6" transform="translate(85.736 86.242)">
      <g id="Group_5" data-name="Group 5" transform="translate(0 0)">
        <path id="Path_22" data-name="Path 22" d="M459.97,612.886l8.822-14.377c19.148,9.588,40.605,3.839,56.25-14.16,15.5-17.834,18.049-38.69,3.815-51.061-12.39-10.769-25.8-4.641-35.588,1.548l-35.685,22.627c-17.16,10.952-35.065,14.642-51.223.6-20.344-17.682-18.019-46.229,2.73-69.934,21.04-24.039,49.571-29.812,74.674-14.9L474.9,488.158c-17.766-11.179-39.371-6.442-54.165,10.24-14.126,16.086-15.573,35.844-3.6,46.249,12.224,10.625,26.8,2.133,37.634-4.915l27.468-17.571c11.277-7.394,34.175-21.735,57.032-1.869,22.437,19.5,19.042,49.617-2.861,74.818S484.968,627.411,459.97,612.886Z" transform="translate(-187.732 -175.799)" fill="#FFFFFF"/>
        <path id="Path_23" data-name="Path 23" d="M525.629,482.748c-29.425-39.362-29.114-82.117,9.094-110.678,29.677-22.186,61.069-20.028,87.217.314L611.2,385.814c-20.5-16.118-44.19-18.352-67.114-1.216-30.033,22.451-28.333,55.668-4.688,87.855,23.735,32.12,55.557,42.82,85.59,20.37,22.925-17.137,27.487-40.493,17.829-64.715l15.919-6.5c12.111,30.837,5.3,61.556-24.382,83.74C596.149,533.913,555.055,522.11,525.629,482.748Z" transform="translate(-168.881 -194.038)" fill="#FFFFFF"/>
        <path id="Path_24" data-name="Path 24" d="M805.764,408.022l-17.076,7.739-51.823-43.136-46.479,21.063,25.047,55.269-14.853,6.732-65.938-145.5,56.179-25.459a70.833,70.833,0,0,1,10.572-3.817c24.336-6.767,45.263,5.551,55.567,28.285,8.655,19.1,6.805,38.933-6.588,52.92ZM683.976,379.544,724.9,361a46.465,46.465,0,0,0,8.58-4.984c13.534-9.909,14.361-26.36,8.226-39.9s-19.052-23.763-35.471-20.219a54.154,54.154,0,0,0-9.359,3.267l-40.921,18.545Z" transform="translate(-147.093 -206.982)" fill="#FFFFFF"/>
        <path id="Path_25" data-name="Path 25" d="M791.514,327.626c-10.071-48.1,8.247-86.73,54.936-96.506,46.8-9.8,79.074,18.238,89.146,66.337s-8.248,86.73-55.045,96.528C833.862,403.762,801.585,375.726,791.514,327.626ZM918.658,301c-8.184-39.087-32.258-62.041-69-54.574-36.722,7.576-49.062,38.494-41.2,77.651s32.149,62.064,68.894,54.6C914.068,371.1,926.842,340.092,918.658,301Z" transform="translate(-121.241 -215.346)" fill="#FFFFFF"/>
        <path id="Path_26" data-name="Path 26" d="M962.54,377.309,959.949,217.6l16.3-.264,2.338,144.073,75.864-1.231.253,15.639Z" transform="translate(-92.551 -217.332)" fill="#FFFFFF"/>
        <path id="Path_27" data-name="Path 27" d="M1072.75,379.6l25.912-157.609,16.09,2.645-23.376,142.177,74.865,12.308-2.536,15.432Z" transform="translate(-73.639 -216.551)" fill="#FFFFFF"/>
        <path id="Path_28" data-name="Path 28" d="M1222.279,413.125l62.834-146.859,84.341,36.085-6.414,14.992-69.35-29.67-21.818,50.993,57.112,24.435-6.371,14.89L1265.5,353.555l-28.23,65.985Z" transform="translate(-48.569 -209.128)" fill="#FFFFFF"/>
        <path id="Path_29" data-name="Path 29" d="M1356.519,381.66c27.926-40.435,68.545-53.77,107.794-26.665,39.341,27.169,41.256,69.879,13.331,110.315s-68.545,53.77-107.886,26.6C1330.508,464.806,1328.594,422.1,1356.519,381.66ZM1463.4,455.476c22.692-32.859,22.746-66.121-7.979-87.611-30.789-21.4-61.7-9.042-84.667,23.629s-22.838,66.058,7.888,87.547C1409.435,500.439,1440.711,488.336,1463.4,455.476Z" transform="translate(-29.229 -196.628)" fill="#FFFFFF"/>
        <path id="Path_30" data-name="Path 30" d="M1519.9,625.679l-12.78-13.719,24.365-62.873-34.783-37.341-44.4,41.362-11.116-11.932L1558.08,432.29l42.042,45.132a71,71,0,0,1,6.989,8.8c14.172,20.911,9.17,44.674-9.1,61.688-15.343,14.291-34.735,18.862-52.261,10.628ZM1508.07,501.161l30.624,32.876a46.544,46.544,0,0,0,7.461,6.545c13.707,9.669,29.564,5.208,40.442-4.925s16.45-25.634,7.856-40.067a54.247,54.247,0,0,0-6.08-7.829l-30.624-32.875Z" transform="translate(-11.866 -181.292)" fill="#FFFFFF"/>
        <path id="Path_31" data-name="Path 31" d="M1559.106,678.6l145.012-66.963,6.278,13.594-95.63,113.312,148.132.382,6.371,13.795-144.911,66.919-6.51-14.1,111.881-51.664-135.838.051-4.417-9.567,88.171-103.272L1565.665,692.8Z" transform="translate(7.904 -151.223)" fill="#FFFFFF"/>
        <path id="Path_32" data-name="Path 32" d="M1701.026,806.8c48.313-9,86.527,10.177,95.26,57.073,8.754,47-19.994,78.65-68.307,87.648s-86.526-10.177-95.28-57.182C1623.965,847.446,1652.713,815.8,1701.026,806.8Zm23.784,127.707c39.261-7.312,62.747-30.868,56.1-67.771-6.756-36.882-37.392-49.907-76.714-42.922s-62.767,30.76-56.118,67.661C1654.833,928.36,1685.55,941.822,1724.81,934.509Z" transform="translate(19.982 -118.862)" fill="#FFFFFF"/>
        <path id="Path_33" data-name="Path 33" d="M1644.219,1089.746l.6-18.739,61.585-27.453,1.622-51-60.648-1.929.518-16.3,159.661,5.08-1.961,61.647a70.651,70.651,0,0,1-1.244,11.17c-4.673,24.823-24.965,38.163-49.913,37.369-20.955-.667-37.937-11.084-44.572-29.276Zm79.325-96.7-1.428,44.9a46.4,46.4,0,0,0,.684,9.9c2.914,16.519,17.311,24.524,32.167,25s29.734-6.6,33.8-22.9a54.228,54.228,0,0,0,1.2-9.84l1.429-44.9Z" transform="translate(22.175 -90.413)" fill="#FFFFFF"/>
        <path id="Path_34" data-name="Path 34" d="M1634.755,1207.307l-15.238-3.527,22.514-97.271,155.633,36.021L1775.15,1239.8l-15.239-3.526,18.837-81.384-53.824-12.458-15.834,68.414-15.239-3.526,15.835-68.414-56.093-12.983Z" transform="translate(18.033 -68.251)" fill="#FFFFFF"/>
        <path id="Path_35" data-name="Path 35" d="M1538.957,1451.515l-10.094,12.852q-10.3-8.213-18.749-10.014a33.167,33.167,0,0,0-17.6,1.232,41.236,41.236,0,0,0-16.632,10.718q-10.73,11.02-11.28,22.355t8.049,19.706a23.727,23.727,0,0,0,10.945,6.345,23.214,23.214,0,0,0,12.656-.681q6.749-2.125,25.568-12.679,16.764-9.383,26.163-11.115a38.171,38.171,0,0,1,18.516,1.092,41.719,41.719,0,0,1,16.8,10.308q13.816,13.45,13.9,30.916t-14.655,32.6q-10.124,10.4-21.833,14.2a40.815,40.815,0,0,1-23.588.622q-11.877-3.172-22.581-12.989l10.475-12.933q12.007,9.875,22.917,9.383t20.959-10.815q10.2-10.477,10.871-20.561a21.228,21.228,0,0,0-6.781-17.334q-6.908-6.727-14.64-6.39t-25.378,10.658q-17.264,10.087-25.51,12.942-12.674,4.286-24.01,1.733t-21.182-12.137a49.214,49.214,0,0,1-13.336-21.9,42.955,42.955,0,0,1-.084-24.348q3.486-11.954,14.29-23.053,16.851-17.31,37.264-17.468T1538.957,1451.515Z" transform="translate(-10.872 -13.216)" fill="#FFFFFF"/>
        <path id="Path_36" data-name="Path 36" d="M1373.379,1599.778l-17.235,5.62q-10.681-25.2-6.5-44.217t21.023-30.851q14.805-10.4,30.385-10.549t33.491,11.117q17.909,11.264,33.173,33,15.077,21.465,18.817,41.029t-2.383,35.188a55.3,55.3,0,0,1-20.226,25.534q-15.439,10.845-33.27,9.039t-35.314-17.259l11.027-13.7q26.09,22.048,47.484,7.021,10.654-7.483,14.631-18.427t.539-25.75q-3.442-14.807-15.842-32.46-18.76-26.705-37.534-33.458t-34.376,4.208a33.572,33.572,0,0,0-14.143,22.177Q1364.508,1581.119,1373.379,1599.778Z" transform="translate(-27.412 1.039)" fill="#FFFFFF"/>
        <path id="Path_37" data-name="Path 37" d="M1317.83,1572.771l64.532,145.105-52.756,23.463q-16.529,7.349-26.2,6.793t-18.922-7.757q-9.248-7.2-14.792-19.666-7.3-16.418-3.272-30.417t19.131-24.029a44.411,44.411,0,0,1-13.684-3.578,111.347,111.347,0,0,1-20.6-13.007l-38.351-30.25,19.8-8.8,29.286,23.115q17.1,13.6,24.527,17.663t12.779,4.234q5.347.175,13.258-3.342l18.193-8.091-28.657-64.436Zm20.314,88.064-33.852,15.055q-11.083,4.928-15.638,10.155a22.292,22.292,0,0,0-5.363,12.464,28.379,28.379,0,0,0,2.577,14.86q4.885,10.985,14.114,14.41t21.9-2.21l37.613-16.727Z" transform="translate(-50.139 9.923)" fill="#FFFFFF"/>
        <path id="Path_38" data-name="Path 38" d="M1223.351,1693.91q8.743,39.671-4.012,64.836t-38.78,30.9a54.262,54.262,0,0,1-32.779-2.759q-15.954-6.467-28.047-22.825t-17.619-41.431q-7.6-34.487,3.275-59.624,11.975-27.71,39.9-33.865,28.14-6.2,50.687,14.562Q1216.426,1662.491,1223.351,1693.91Zm-17.407,3.558q-6.325-28.695-22.457-41.735t-34.219-9.055q-18.511,4.079-27.525,22.831t-2.174,49.773q4.41,20.009,14.342,34.363a45.055,45.055,0,0,0,19.227,16.024,37.283,37.283,0,0,0,23.444,2.438q19.044-4.2,27.866-22.794T1205.944,1697.468Z" transform="translate(-69.24 19.135)" fill="#FFFFFF"/>
        <path id="Path_39" data-name="Path 39" d="M1067.626,1644.625l5.742,158.705-17.212.622-5.064-139.976L987,1666.3l-.678-18.728Z" transform="translate(-88.129 21.971)" fill="#FFFFFF"/>
        <path id="Path_40" data-name="Path 40" d="M967.211,1646.866l-18.643,157.711-17.1-2.024,16.443-139.1-63.687-7.529,2.2-18.612Z" transform="translate(-105.248 20.745)" fill="#FFFFFF"/>
        <path id="Path_41" data-name="Path 41" d="M821.9,1617.171l-56.6,148.381-82.085-31.311,6.679-17.509,65.993,25.171,17.528-45.951-57.085-21.776,6.678-17.51,57.086,21.776,25.713-67.409Z" transform="translate(-138.948 16.339)" fill="#FFFFFF"/>
        <path id="Path_42" data-name="Path 42" d="M689.263,1650.229q-21.319,34.578-47.991,43.778t-49.354-4.785a54.259,54.259,0,0,1-21.624-24.787q-6.962-15.744-4.268-35.909t16.171-42.017q18.534-30.061,43.836-40.55,27.88-11.572,52.223,3.437,24.53,15.122,26.276,45.726Q706.147,1622.843,689.263,1650.229Zm-14.98-9.555q15.422-25.013,12.908-45.6t-18.281-30.312q-16.135-9.948-35.656-2.752t-36.191,34.24q-10.754,17.44-13.607,34.66a45.065,45.065,0,0,0,2.662,24.889,37.3,37.3,0,0,0,15.145,18.063q16.6,10.232,35.874,3.014T674.283,1640.674Z" transform="translate(-158.723 4.583)" fill="#FFFFFF"/>
        <path id="Path_43" data-name="Path 43" d="M615.266,1513.57,506.794,1629.562l-42.171-39.439q-13.213-12.357-16.471-21.48t-.232-20.449q3.027-11.325,12.343-21.288,12.276-13.127,26.736-14.87t29.586,8.251a44.371,44.371,0,0,1-2.04-14,111.34,111.34,0,0,1,3.946-24.046l12.907-47.106,15.824,14.8-9.87,35.98q-5.862,21.048-6.7,29.472t1.081,13.417q1.925,4.994,8.247,10.907l14.542,13.6,48.168-51.509Zm-73.18,53.036L515.027,1541.3q-8.861-8.288-15.448-10.443a22.294,22.294,0,0,0-13.568-.082,28.407,28.407,0,0,0-12.68,8.166q-8.213,8.784-7.768,18.616t10.572,19.3l30.066,28.117Z" transform="translate(-178.644 -13.152)" fill="#FFFFFF"/>
        <path id="Path_44" data-name="Path 44" d="M494.6,1383.295l-137.679,79.151-12.909-22.455,82.077-82.84,17.3-17.075q-8.743,2.4-25.53,6.67L306.5,1374.736l-11.558-20.1,137.679-79.151,8.26,14.369-115.147,66.2,134.073-33.275,7.716,13.422-98.31,100.067,117.128-67.336Z" transform="translate(-204.048 -39.921)" fill="#FFFFFF"/>
        <path id="Path_45" data-name="Path 45" d="M351.518,1284.131q-38.715,12.308-64.931,1.887T252.3,1250.2a54.265,54.265,0,0,1-.227-32.893q4.992-16.476,20.187-30t39.662-21.3q33.657-10.7,59.676-2.147,28.682,9.411,37.345,36.665,8.729,27.463-9.9,51.8Q382.178,1274.384,351.518,1284.131Zm-5.124-17.013q28-8.9,39.528-26.149t5.913-34.9Q386.092,1188,366.6,1180.729t-49.765,2.349q-19.527,6.207-32.922,17.4a45.074,45.074,0,0,0-14.213,20.6,37.292,37.292,0,0,0-.3,23.569q5.908,18.582,25.23,25.683T346.394,1267.118Z" transform="translate(-211.645 -59.273)" fill="#FFFFFF"/>
        <path id="Path_46" data-name="Path 46" d="M385.865,1130.061l-157.9,16.925-6.154-57.41q-1.928-17.986,1.568-27.023t13.186-15.632q9.691-6.6,23.254-8.049,17.867-1.914,29.954,6.213t17.006,25.578a44.467,44.467,0,0,1,7.6-11.928,111.376,111.376,0,0,1,18.7-15.622l40.552-27.226,2.31,21.542-30.983,20.787q-18.191,12.1-24.333,17.93t-7.948,10.863q-1.806,5.039-.884,13.645l2.122,19.8,70.119-7.516Zm-90.051-7.67-3.948-36.837q-1.293-12.063-4.87-18a22.283,22.283,0,0,0-10.218-8.929,28.382,28.382,0,0,0-14.933-2.1q-11.957,1.28-18.046,9.016t-4.611,21.521l4.388,40.931Z" transform="translate(-216.424 -83.445)" fill="#FFFFFF"/>
        <path id="Path_47" data-name="Path 47" d="M375.42,1003.464,217.1,991.032l7.369-93.849,18.683,1.467-6.02,76.677,48.382,3.8,5.64-71.817,18.683,1.467-5.64,71.817,53.89,4.232,6.259-79.7,18.684,1.468Z" transform="translate(-217.099 -103.347)" fill="#FFFFFF"/>
      </g>
    </g>
    <ellipse id="Ellipse_4" data-name="Ellipse 4" cx="16.449" cy="16.449" rx="16.449" ry="16.449" transform="translate(1713.29 1388.255)" fill="#FFFFFF"/>
    <ellipse id="Ellipse_5" data-name="Ellipse 5" cx="16.449" cy="16.449" rx="16.449" ry="16.449" transform="translate(205.25 667.204)" fill="#FFFFFF"/>
  </g>
</svg>
